<?xml version="1.0" encoding="UTF-8"?>
<!DOCTYPE svg PUBLIC "-//W3C//DTD SVG 1.1//EN" "http://www.w3.org/Graphics/SVG/1.1/DTD/svg11.dtd">
<svg version="1.1" xmlns="http://www.w3.org/2000/svg" xmlns:xlink="http://www.w3.org/1999/xlink" x="0" y="0" width="1176" height="707" viewBox="0, 0, 1176, 707">
  <g id="Layer_1">
    <path d="M423.88,561.331 C425.579,544.21 416.415,530.292 410.888,515.21 C406.005,501.874 405.544,491.437 405.075,476.738 C404.458,457.507 399.13,445.316 387.231,429.57 C373.146,410.937 324.739,372.066 305.927,404.644 C298.278,417.894 304.169,447.202 304.911,462.03 C306.013,483.976 312.614,500.952 319.255,521.874 C326.606,545.038 340.255,584.21 336.255,604.546 C319.255,618.546 320.099,608.687 315.919,623.878 C314.735,628.191 313.919,633.21 324.591,633.878 C317.919,648.546 327.075,665.417 339.075,658.738 C330.411,678.07 349.286,682.105 376.411,676.07 C401.255,670.546 416.708,660.624 422.255,647.546 C431.919,624.749 421.396,586.433 423.88,561.331" fill="#B48373"/>
    <path d="M423.255,572.542 C422.575,562.382 425.571,541.374 416.591,537.874 C391.708,528.187 343.255,496.542 329.919,471.21 C324.067,460.085 325.919,432.542 305.919,449.874 C304.802,470.726 314.317,500.788 320.591,520.542 C323.161,528.636 326.81,555.905 335.075,560.07 C349.216,542.87 361.228,549.062 369.739,556.07 C392.411,574.738 423.075,601.405 419.067,633.015 C425.974,615.82 424.591,592.542 423.255,572.542" fill="#AB796B"/>
    <path d="M309.739,408.07 C298.579,451.605 312.638,497.952 321.919,527.21 C329.271,550.374 341.919,582.21 337.919,602.546 C324.919,607.878 315.923,618.546 315.255,623.878 C314.7,628.316 315.255,637.878 325.919,633.878 C311.255,647.21 327.075,665.417 339.075,658.738 C332.591,674.546 351.435,685.015 374.591,678.546 C397.013,672.273 417.708,658.624 423.255,645.546 C428.896,632.241 420.368,596.773 423.88,561.331 C426.403,535.905 426.942,497.566 422.255,473.546" fill-opacity="0" stroke="#1A1919" stroke-width="5.669" stroke-linecap="round" stroke-linejoin="round"/>
    <path d="M921.278,581.132 C921.278,519.398 995.122,367.601 885.915,373.144 C847.966,375.07 817.31,392.081 798.638,426.07 C787.466,446.402 779.13,472.507 786.528,495.124 C793.481,516.374 810.802,533.948 817.278,555.808 C822.614,573.804 825.923,594.878 819.255,605.546 C805.919,614.546 795.231,625.952 793.255,632.546 C790.38,642.124 796.255,652.046 810.61,639.804 C798.61,651.804 811.942,673.804 829.278,663.804 C825.278,681.136 846.61,683.804 866.61,675.804 C892.841,665.312 914.52,647.441 921.278,623.804 C923.942,614.468 921.278,607.804 921.278,581.132" fill="#B48373"/>
    <path d="M922.61,586.468 C931.942,535.8 995.122,367.601 885.915,373.144 C847.966,375.07 817.31,392.081 798.638,426.07 C787.466,446.402 779.13,472.507 786.528,495.124 C793.481,516.374 810.802,533.948 817.282,555.82 C821.103,568.718 821.669,586.21 834.56,592.452 C848.356,599.124 866.864,591.374 878.856,604.109 C885.622,611.304 886.2,617.726 893.591,624.132 C905.903,634.796 916.458,643.226 921.169,623.327 C924.02,611.273 920.396,598.515 922.61,586.468" fill="#AB796B"/>
    <path d="M786.606,493.132 C802.231,526.984 812.134,538.448 817.278,555.804 C822.61,573.804 823.923,597.874 817.255,608.546 C805.255,615.878 794.255,626.546 795.255,636.546 C796.106,645.046 802.255,647.046 810.61,639.804 C800.591,656.546 816.591,672.546 829.278,663.804 C827.255,687.21 853.88,683.105 873.919,675.21 C895.919,666.546 914.52,647.441 921.278,623.804 C923.942,614.468 919.278,607.136 925.278,581.136 C931.661,553.46 947.606,406.515 959.942,381.136" fill-opacity="0" stroke="#1A1919" stroke-width="5.669" stroke-linecap="round" stroke-linejoin="round"/>
    <path d="M1173.12,283.038 C1153.28,310.538 1101.82,311.984 1065.28,270.538 C1055.66,259.616 1036.18,247.761 1051.28,238.538 C1068.13,228.257 1053.95,238.405 1069.28,244.538 C1075.95,247.206 1117.28,280.538 1173.12,283.038" fill="#B48373"/>
    <path d="M1149.12,296.878 C1127.67,322.503 1080.19,287.452 1065.28,270.538 C1055.66,259.616 1036.19,247.765 1051.27,238.542 C1054.13,236.796 1056.87,235.093 1060.04,234.148 C1064.99,247.499 1070.6,248.741 1081.26,258.546 C1097.4,273.398 1125.18,292.902 1149.12,296.878" fill="#AB796B"/>
    <path d="M1173.12,283.038 C1153.28,310.538 1101.82,311.984 1065.28,270.538 C1055.66,259.616 1036.18,247.761 1051.28,238.538 C1068.13,228.257 1053.95,238.405 1069.28,244.538 C1075.95,247.206 1117.28,280.538 1173.12,283.038 z" fill-opacity="0" stroke="#1A1919" stroke-width="5.669" stroke-linecap="round" stroke-linejoin="round"/>
    <path d="M457.278,552.538 C377.528,530.663 324.649,483.913 316.474,398.343 C309.216,322.351 335.239,242.007 375.544,178.21 C412.864,119.148 383.696,116.507 442.61,116.538 C508.626,116.577 679.188,122.066 743.942,119.202 C800.114,116.718 870.036,120.968 924.896,134.484 C969.606,145.491 1047.49,193.21 1073.26,232.546 C1123.92,309.878 1130.9,381.55 1103.28,438.538 C1071.1,504.925 933.786,567.499 863.942,575.202 C800.942,582.152 731.278,599.866 619.278,582.538 C559.317,573.257 515.942,568.628 457.278,552.538" fill="#BD897C"/>
    <path d="M321.919,491.21 C312.067,484.144 313.591,464.542 312.591,448.542 C330.919,441.491 328.017,439.452 339.317,432.597 C361.493,419.155 395.255,389.878 399.255,360.546 C411.255,396.546 379.919,436.546 341.255,448.546 C341.208,448.558 314.564,458.554 321.919,491.21" fill="#AB796B"/>
    <path d="M457.271,552.534 C418.81,541.984 349.661,516.374 333.278,475.202 C337.833,486.648 380.392,505.409 391.083,509.655 C410.435,517.351 435.942,517.87 438.61,500.538 C457.278,516.538 466.106,527.476 484.372,532.359 C508.138,538.71 536.192,541.972 558.724,529.988 C577.212,520.155 575.872,502.327 581.278,518.538 C587.278,536.538 666.724,555.159 679.942,559.202 C714.341,569.718 795.501,548.312 831.255,550.546 C895.255,554.546 963.942,571.202 1030.61,467.202 C1005.28,545.87 903.638,576.085 863.278,580.538 C800.278,587.484 731.278,599.866 619.278,582.538 C559.317,573.257 515.942,568.628 457.271,552.534" fill="#AB796B"/>
    <path d="M323.048,310.417 C330.536,261.866 349.372,219.64 375.544,178.214 C412.864,119.148 383.692,116.507 442.61,116.538 C508.626,116.577 679.188,122.066 743.942,119.202 C800.114,116.718 870.036,120.968 924.896,134.484 C969.606,145.491 1033.24,175.886 1073.26,230.546 C1127.88,305.14 1127.26,390.546 1103.28,438.538 C1083.67,477.804 1023.7,520.718 961.278,548.538 C923.278,572.538 856.755,582.269 827.278,584.538 C775.278,588.538 731.278,590.538 619.278,582.538 C558.755,578.214 515.942,568.628 457.278,552.538 C411.356,539.941 401.278,534.538 353.278,498.538" fill-opacity="0" stroke="#1A1919" stroke-width="5.669" stroke-linecap="round" stroke-linejoin="round"/>
    <path d="M568.61,638.538 C570.489,609.714 573.638,581.066 576.685,552.359 C578.294,537.226 577.579,524.398 584.614,510.913 C590.864,498.921 602.841,490.687 608.931,478.331 C623.778,448.21 605.263,425.503 572.88,414.741 C544.45,405.296 486.606,406.066 460.341,418.066 C396.384,447.288 455.458,540.905 461.278,584.538 C463.278,599.538 462.278,605.538 459.278,624.538 C448.255,637.546 440.849,640.968 438.255,647.546 C433.919,658.546 443.255,667.546 456.278,661.538 C441.278,681.87 463.255,693.878 481.278,683.202 C472.591,704.546 495.231,706.554 517.255,700.546 C536.849,695.198 566.61,669.202 568.61,638.538" fill="#BD897C"/>
    <path d="M513.919,635.21 C518.45,621.077 491.255,617.546 496.255,605.546 C498.458,600.249 505.302,599.241 510.255,587.546 C515.208,575.843 486.997,564.866 471.942,553.87 C458.45,544.015 450.165,526.39 443.181,511.093 C443.45,537.07 457.888,559.124 461.278,584.538 C462.388,592.902 462.692,613.226 463.255,621.546 C487.231,620.218 511.868,641.616 513.919,635.21" fill="#AB796B"/>
    <path d="M434.61,488.534 C443.646,533.038 457.048,552.816 461.278,584.534 C463.278,599.534 460.255,610.546 457.255,629.546 C447.255,639.546 439.919,642.546 439.919,653.21 C439.919,663.405 447.255,668.546 456.278,661.538 C443.919,677.21 459.919,690.546 478.591,685.21 C474.591,699.874 489.255,709.878 517.919,700.546 C537.231,694.257 567.278,676.538 568.61,638.538 C569.548,611.851 576.708,532.687 585.278,504.538" fill-opacity="0" stroke="#1A1919" stroke-width="5.669" stroke-linecap="round" stroke-linejoin="round"/>
    <path d="M1073.28,589.194 C1082.2,547.277 1161.65,360.421 1083.26,360.538 C1025.61,360.624 1039.5,412.644 1033.28,451.202 C1029.07,477.312 1009.27,506.624 990.579,524.202 C974.638,539.202 959.825,542.585 966.556,564.89 C970.509,577.995 967.435,620.273 949.255,627.546 C935.923,632.874 932.567,638.89 929.255,641.546 C923.974,645.78 923.255,664.546 941.278,660.538 C931.942,675.87 945.278,691.202 966.61,683.202 C960.61,701.87 993.235,705.886 1016.6,693.878 C1039.09,682.312 1057.8,669.491 1065.28,648.538 C1071.95,629.87 1066.61,620.538 1073.28,589.194" fill="#BD897C"/>
    <path d="M1005.28,585.87 C1008.98,573.64 1027.92,596.206 1027.95,576.538 C1027.97,558.335 999.888,542.421 1013.28,523.202 C1025.02,506.359 1034.04,473.195 1033.28,452.542 C1033.86,468.218 1017.23,489.515 1007.95,501.87 C997.259,516.097 970.638,542.546 959.255,554.546 C972.591,573.21 964.95,606.8 956.591,624.546 C981.919,613.874 1028.73,638.132 1030.61,631.202 C1034.61,616.538 1001.58,598.101 1005.28,585.87" fill="#AB796B"/>
    <g>
      <path d="M957.255,551.546 C972.88,585.39 963.923,609.21 953.255,625.21 C947.255,628.546 940.255,629.546 931.255,637.546 C922.306,645.499 924.255,665.546 941.278,660.538 C931.942,675.87 942.919,690.046 964.255,682.046 C960.255,701.046 980.591,703.878 998.255,699.546 C1030.09,691.734 1057.8,669.491 1065.28,648.538 C1071.95,629.87 1066.61,620.538 1073.28,589.202 C1077.85,567.71 1094.11,539.155 1105.92,489.21 C1114.24,454.077 1119.26,407.878 1119.26,361.21 M961.278,548.538 C998.064,525.87 1035.28,472.538 1039.28,434.538" fill-opacity="0" stroke="#1A1919" stroke-width="5.669" stroke-linecap="round" stroke-linejoin="round"/>
      <path d="M297.278,454.538 C333.876,431.804 368.521,419.624 391.212,381.605 C413.649,344.007 461.56,329.835 480.216,289.726 C498.325,250.796 504.458,156.304 463.278,126.538 C441.938,111.109 391.7,105.866 364.544,99.389 C347.356,95.296 330.524,89.616 313.267,85.866 C267.267,75.866 194.606,72.538 158.61,121.866 C146.896,137.921 131.278,160.538 121.278,199.202 C110.942,239.163 89.973,291.448 71.942,305.87 C45.278,327.202 32.434,333.28 18.606,359.206 C-2.722,399.202 -5.39,456.538 29.278,472.538 C37.278,506.538 66.247,510.21 97.254,520.546 C133.255,532.546 198.177,538.292 225.255,528.546 C275.255,510.546 286.825,461.03 297.278,454.538" fill="#BD897C"/>
    </g>
    <path d="M284.587,453.21 C297.228,433.968 308.61,409.538 323.278,377.538 C295.278,437.538 245.056,506.03 190.61,500.538 C162.407,497.691 126.335,480.925 93.278,473.87 C78.927,470.808 51.942,477.87 29.278,472.538 C35.942,500.538 95.387,493.257 111.255,498.546 C147.255,510.546 169.333,521.523 197.255,514.546 C229.255,506.546 264.403,483.945 284.587,453.21" fill="#AB796B"/>
    <path d="M465.278,116.538 C370.075,107.323 344.396,92.635 313.278,85.866 C267.278,75.866 194.61,72.538 158.61,121.866 C146.896,137.921 131.278,160.538 121.278,199.202 C110.942,239.163 89.973,291.448 71.942,305.87 C45.278,327.202 32.434,333.28 18.606,359.206 C-2.722,399.202 -5.39,456.538 29.278,472.538 C37.278,506.538 71.434,515.058 103.255,522.546 C137.255,530.546 185.255,536.546 215.255,528.546 C272.907,513.171 286.825,461.03 297.278,454.538 C311.724,445.562 389.255,414.546 401.255,362.546" fill-opacity="0" stroke="#1A1919" stroke-width="5.669" stroke-linecap="round" stroke-linejoin="round"/>
    <path d="M62.61,377.866 C74.95,381.749 65.348,433.757 53.278,431.202 C31.254,426.546 50.27,373.988 62.61,377.866" fill="#9C6961"/>
    <path d="M62.61,377.866 C74.95,381.749 65.348,433.757 53.278,431.202 C31.254,426.546 50.27,373.988 62.61,377.866 z" fill-opacity="0" stroke="#1A1919" stroke-width="5.669" stroke-linecap="round" stroke-linejoin="round"/>
    <path d="M183.278,396.538 C196.212,396.53 203.255,448.546 183.255,448.546 C163.231,448.546 171.255,396.546 183.278,396.538" fill="#9C6961"/>
    <path d="M183.278,396.538 C196.212,396.53 203.255,448.546 183.255,448.546 C163.231,448.546 171.255,396.546 183.278,396.538 z" fill-opacity="0" stroke="#1A1919" stroke-width="5.669" stroke-linecap="round" stroke-linejoin="round"/>
    <path d="M151.255,210.546 C168.591,211.878 158.591,241.187 145.919,235.878 C137.56,232.378 141.86,209.82 151.255,210.546" fill="#1A1919"/>
    <path d="M269.923,227.21 C287.259,223.874 283.942,255.202 269.278,252.538 C259.286,250.718 258.739,229.359 269.923,227.21" fill="#1A1919"/>
    <path d="M321.278,117.866 C339.278,85.866 337.856,59.194 351.942,41.866 C373.747,15.05 409.278,30.335 413.278,57.87 C419.774,102.593 355.392,92.917 361.278,134.538" fill="#BD897C"/>
    <path d="M321.278,117.866 C339.278,85.866 337.856,59.194 351.942,41.866 C373.747,15.05 409.278,30.335 413.278,57.87 C419.774,102.593 355.392,92.917 361.278,134.538" fill-opacity="0" stroke="#1A1919" stroke-width="5.669" stroke-linecap="round" stroke-linejoin="round"/>
    <g>
      <path d="M165.278,113.866 C174.61,103.202 186.603,95.343 187.942,89.866 C194.81,61.815 178.813,44.257 191.942,16.534 C201.966,-4.622 249.278,-3.466 246.61,41.866 C245.376,62.858 225.278,76.534 219.942,97.866" fill="#BD897C"/>
      <path d="M165.278,113.866 C174.61,103.202 186.603,95.343 187.942,89.866 C194.81,61.815 178.813,44.257 191.942,16.534 C201.966,-4.622 249.278,-3.466 246.61,41.866 C245.376,62.858 225.278,76.534 219.942,97.866 M27.942,471.202 C58.61,481.866 60.61,469.202 98.61,475.202 C133.278,481.866 158.591,502.542 199.255,500.546 C249.411,498.077 319.278,412.538 321.278,368.538" fill-opacity="0" stroke="#1A1919" stroke-width="5.669" stroke-linecap="round" stroke-linejoin="round"/>
    </g>
    <path d="M312.587,339.878 C304.587,367.878 324.587,391.878 349.919,375.878" fill="#BD897C"/>
    <path d="M312.587,339.878 C304.587,367.878 324.587,391.878 349.919,375.878" fill-opacity="0" stroke="#1A1919" stroke-width="5.669" stroke-linecap="round" stroke-linejoin="round"/>
    <path d="M388.271,52.546 C395.618,63.706 391.927,73.936 383.278,80.538 C381.196,82.124 362.278,93.538 352.278,94.538 C352.278,81.538 350.81,65.753 361.028,55.968 C368.356,48.944 381.622,42.444 388.271,52.546" fill="#AB796B"/>
    <path d="M212.091,20.475 C225.091,23.577 229.403,33.553 227.622,44.288 C227.196,46.866 218.88,63.956 212.278,71.538 C203.372,62.065 198.536,50.667 199.278,36.538 C199.81,26.405 200.329,17.671 212.091,20.475" fill="#AB796B"/>
    <path d="M353.278,86.538 C349.903,54.221 395.466,30.354 391.942,63.202 M211.942,20.534 C231.856,19.413 227.942,44.534 217.278,67.202 M323.919,636.546 C328.587,631.21 333.552,627.718 337.255,626.546 M337.919,659.878 C341.255,655.21 347.923,650.546 352.591,649.21 M809.755,640.71 C814.419,635.382 817.255,633.046 821.755,631.046 M828.755,665.046 C829.255,659.546 836.091,652.378 840.755,651.046 M940.255,662.046 C943.755,653.546 952.224,649.054 955.923,647.882 M963.755,685.046 C964.755,679.046 969.755,672.046 974.755,668.546 M454.591,663.878 C457.45,659.57 462.509,653.64 467.255,651.21 M478.591,685.878 C480.497,681.538 483.892,675.128 487.919,672.546" fill-opacity="0" stroke="#1A1919" stroke-width="5.669" stroke-linecap="round" stroke-linejoin="round"/>
    <path d="M148.335,168.925 C153.632,147.751 182.418,151.933 183.255,182.546" fill="#BD897C"/>
    <path d="M148.335,168.925 C153.632,147.751 182.418,151.933 183.255,182.546" fill-opacity="0" stroke="#1A1919" stroke-width="5.669" stroke-linecap="round" stroke-linejoin="round"/>
    <path d="M256.591,195.882 C263.255,170.546 295.255,162.546 297.919,190.546" fill="#BD897C"/>
    <path d="M256.591,195.882 C263.255,170.546 295.255,162.546 297.919,190.546" fill-opacity="0" stroke="#1A1919" stroke-width="5.669" stroke-linecap="round" stroke-linejoin="round"/>
  </g>
</svg>
